# xmcd
# 
# Track frame offsets:
#     150
#     21612
#     40005
#     63592
#     83220
#     101680
#     119882
#     141557
#     164120
#     185960
#     200827
#     227725
# 
# Disc length: 3229
# 
# Revision: 3
# Processed by: cddbd v1.5.2PL0 Copyright (c) Steve Scherf et al.
# Submitted via: BonkEnc v1.0.8
# 
DISCID=c50c9b0c
DTITLE=Lucky Peterson - Double Dealin'
DYEAR=2001
DGENRE=Blues
TTITLE0=Double Dealing
TTITLE1=It Ain't Safe
TTITLE2=When My Blood Runs Cold
TTITLE3=Smooth Sailling
TTITLE4=Don't Try To Explain
TTITLE5=Mercenary Baby
TTITLE6=Ain't Doin' Too Bad
TTITLE7=Where Can A Man Go
TTITLE8=3 Handed Woman
TTITLE9=Doin' Bad, Feelin' Good
TTITLE10=4 Little Boys
TTITLE11=Remember The Day
EXTD=
EXTT0=
EXTT1=
EXTT2=
EXTT3=
EXTT4=
EXTT5=
EXTT6=
EXTT7=
EXTT8=
EXTT9=
EXTT10=
EXTT11=
PLAYORDER=
